<svg
    fill="none"
    viewBox="0 0 1264 1081"
    xmlns="http://www.w3.org/2000/svg"
    style="fill-rule:evenodd;clip-rule:evenodd;stroke-linejoin:round;stroke-miterlimit:2;"
>
    <path d="M821.446,197.904l-509.688,882.762l-311.758,-539.981l312.164,-540.685l228.521,0l-312.165,540.685l83.238,144.172l395.046,-684.857l236.18,0c113.475,0 213.183,59.413 269.686,148.803l-0,1.205c9.666,15.344 18.06,31.568 25.035,48.524c15.357,37.337 23.828,78.222 23.828,121.07c0,34.637 -5.535,67.992 -15.77,99.227c-2.336,7.131 -4.918,14.151 -7.734,21.051c-7.038,17.243 -15.543,33.733 -25.359,49.316c-11.169,17.73 -24.037,34.285 -38.373,49.436c14.28,14.868 27.143,31.107 38.373,48.497c10.433,16.158 19.456,33.31 26.893,51.283c15.631,37.774 24.259,79.171 24.259,122.566c-0,43.396 -8.628,84.792 -24.259,122.567c-7.437,17.972 -16.46,35.124 -26.893,51.282c-50.671,78.472 -134.615,133.481 -231.81,145.004l-474.41,-0l113.348,-196.286l322.926,-0c67.646,-0 122.566,-54.921 122.566,-122.567c0,-67.646 -54.92,-122.566 -122.566,-122.566l-181.37,-0l112.461,-194.748l68.909,0c8.892,0 17.564,-0.949 25.92,-2.751c1.475,-0.318 2.94,-0.662 4.394,-1.033c53.005,-13.506 92.252,-61.597 92.252,-118.782c0,-66.254 -52.682,-120.3 -118.406,-122.497l0.376,-0.651l-125.814,-0.046Z"/>
    <style>
        path { fill: #000; }
        @media (prefers-color-scheme: dark) {
            path { fill: #FFF; }
        }
    </style>
</svg>