<?xml version="1.0" encoding="UTF-8" standalone="no"?><!DOCTYPE svg PUBLIC "-//W3C//DTD SVG 1.1//EN" "http://www.w3.org/Graphics/SVG/1.1/DTD/svg11.dtd"><svg width="100%" height="100%" viewBox="0 0 534 534" version="1.1" xmlns="http://www.w3.org/2000/svg" xmlns:xlink="http://www.w3.org/1999/xlink" xml:space="preserve" xmlns:serif="http://www.serif.com/" style="fill-rule:evenodd;clip-rule:evenodd;stroke-linejoin:round;stroke-miterlimit:2;"><g id="Final"><path d="M533.333,266.668l-133.333,230.938l-266.665,-0l-133.335,-230.938l133.335,-230.94l266.665,-0l133.333,230.94Z" style="fill:#fff;"/><g><path d="M533.333,266.668l-133.333,230.938l-266.665,-0l-133.335,-230.938l133.335,-230.94l266.665,-0l133.333,230.94Zm-42.282,0l-112.192,-194.322l-224.385,-0l-112.19,194.322l112.19,194.319l224.385,-0l112.192,-194.319Z"/></g><g><path d="M301.485,185.236l-121.203,209.918l-74.136,-128.406l74.231,-128.572l54.341,0l-74.231,128.572l19.795,34.283l93.941,-162.855l56.162,0c26.985,0 50.695,14.129 64.131,35.385l-0,0.287c2.297,3.647 4.293,7.507 5.953,11.538c3.653,8.88 5.667,18.602 5.667,28.791c-0,8.236 -1.319,16.167 -3.751,23.594c-0.555,1.696 -1.168,3.366 -1.84,5.007c-1.672,4.102 -3.695,8.023 -6.029,11.727c-2.655,4.217 -5.716,8.154 -9.124,11.755c3.393,3.536 6.453,7.396 9.124,11.534c2.48,3.842 4.626,7.919 6.395,12.194c3.717,8.983 5.768,18.828 5.768,29.145c-0,10.32 -2.051,20.164 -5.768,29.147c-1.769,4.273 -3.915,8.352 -6.395,12.194c-12.051,18.66 -32.011,31.742 -55.126,34.482l-112.81,-0l26.953,-46.676l76.791,0c16.085,0 29.145,-13.06 29.145,-29.147c0,-16.085 -13.06,-29.145 -29.145,-29.145l-43.13,-0l26.744,-46.309l16.386,-0c2.112,-0 4.175,-0.226 6.161,-0.657c0.351,-0.076 0.699,-0.155 1.047,-0.244c12.603,-3.213 21.937,-14.647 21.937,-28.247c0,-15.755 -12.529,-28.605 -28.156,-29.13l0.088,-0.152l-29.916,-0.013Z"/></g></g></svg>